<svg id="Camada_1" data-name="Camada 1" xmlns="http://www.w3.org/2000/svg" viewBox="0 0 135.55 126.27"><defs><style>.cls-1{fill:#1e3458;}.cls-2{fill:#dbdbdb;}.cls-3{fill:#ddd;stroke:#000;stroke-miterlimit:10;}</style></defs><title>LibrarySem título-1</title><path class="cls-1" d="M69.86,147.73a9.9,9.9,0,0,0-1.3-2.81,8.44,8.44,0,0,0-7-3.84,7.69,7.69,0,0,0-.83,0,7.79,7.79,0,0,0-2.05.5,8.48,8.48,0,0,0-2.53,1.53,9.45,9.45,0,0,0-1.65,1.91A10.14,10.14,0,0,0,53,151.44c.43,4.9,4.2,8.56,8.61,8.56a7.81,7.81,0,0,0,.83,0c4.55-.47,7.93-4.72,7.82-9.64,0-.22,0-.45,0-.68a9.92,9.92,0,0,0-.35-1.91" transform="translate(0 -33.73)"/><path class="cls-1" d="M115.82,138.13a8.57,8.57,0,0,0-2.11-1.39,7.94,7.94,0,0,0-3-.73h-.29a7.56,7.56,0,0,0-.83,0,8.64,8.64,0,0,0-6.68,4.7,10,10,0,0,0-1,3.24,10.44,10.44,0,0,0-.08,2.38c0,.1,0,.2,0,.3.55,4.74,4.25,8.26,8.57,8.26a7.81,7.81,0,0,0,.83,0c4.75-.5,8.24-5.12,7.79-10.32a9.73,9.73,0,0,0-3.15-6.43" transform="translate(0 -33.73)"/><path class="cls-2" d="M38,89.65,36.5,72.37C35.77,64,29.3,57.7,21.75,57.7a13.45,13.45,0,0,0-1.41.07L6.18,59.25c-3.75.39-6.51,4-6.15,8.14a7.09,7.09,0,0,0,6.79,6.76q.33,0,.66,0l14.15-1.48h.11a1.21,1.21,0,0,1,1.16,1.15l1.51,17.28a64.5,64.5,0,0,0,1.49,9.34,7.1,7.1,0,0,1,3-2l9.84-3.32A50,50,0,0,1,38,89.65" transform="translate(0 -33.73)"/><path class="cls-2" d="M135.29,79.52l-.78-9a7.1,7.1,0,0,0-6.79-6.76,4.87,4.87,0,0,0-.66,0c-3.75.39-6.51,4-6.15,8.14l.78,9c.11,1.28.16,2.56.18,3.82.18,15.81-7.09,30.16-18.49,38.61a39.57,39.57,0,0,1-19.55,7.69,38.36,38.36,0,0,1-19.14-2.9,41.64,41.64,0,0,1-12.26-8.06l-1.15,3.63a7,7,0,0,1-13.54.27l-2.45-6.89-4.15-2.3A58.87,58.87,0,0,0,53.66,139a12.55,12.55,0,0,1,6.69-2.85c.41,0,.84-.06,1.26-.06h0c5.78,0,10.7,4,12.48,9.77a51.52,51.52,0,0,0,5.72.33,50.31,50.31,0,0,0,5.32-.28,51.12,51.12,0,0,0,12.2-2.82,15.08,15.08,0,0,1,2.84-6.84,12.87,12.87,0,0,1,8.93-5.18c.42,0,.85-.06,1.27-.06a12.32,12.32,0,0,1,5.06,1.09c13.66-12.45,21.67-31.81,19.86-52.59" transform="translate(0 -33.73)"/><path class="cls-3" d="M117,79.75a26.33,26.33,0,0,0-8.5-4.09,21.88,21.88,0,0,0,9.81-20.79c-1.2-13.76-12.75-22.64-35.66-20.25L53.22,37.68c-8.25.86-14.3,8.87-13.52,17.89L42.87,91.9c.08.56.18,1.12.28,1.68l6.22-2.1a6.91,6.91,0,0,1,2.15-.35,7.05,7.05,0,0,1,5.87,3.33,8.4,8.4,0,0,1,.92,7.15L54.06,115c.22.23.43.46.66.68a35.65,35.65,0,0,0,25.1,10.61,33,33,0,0,0,3.58-.19,36.37,36.37,0,0,0,25.33-14.71,43.34,43.34,0,0,0,8.43-30Zm-49.33-22,13-1.36c6.29-.65,9.34,1.39,9.73,5.8s-2.26,7-8.55,7.7l-13,1.36Zm21,46.27L71.86,105.8,70.62,91.53l16.85-1.76c6.17-.64,9.47,1.5,9.88,6.17s-2.47,7.46-8.64,8.11" transform="translate(0 -33.73)"/><path class="cls-2" d="M51.52,95.63a2.8,2.8,0,0,0-.93.16l-20.44,6.9a3.5,3.5,0,0,0-.48,6.25l7.83,4.34A3.28,3.28,0,0,1,39,115.07l2.59,7.28a3,3,0,0,0,2.88,2.16,3.08,3.08,0,0,0,2.93-2.27l7-22.11a3.35,3.35,0,0,0-2.9-4.5" transform="translate(0 -33.73)"/></svg>